<?xml version="1.0" standalone="no"?><!DOCTYPE svg PUBLIC "-//W3C//DTD SVG 1.1//EN" "http://www.w3.org/Graphics/SVG/1.1/DTD/svg11.dtd"><svg t="1639659958031" class="icon" viewBox="0 0 1024 1024" version="1.1" xmlns="http://www.w3.org/2000/svg" p-id="2531" xmlns:xlink="http://www.w3.org/1999/xlink" width="200" height="200"><defs><style type="text/css"></style></defs><path d="M881.601651 109.110423h-739.731682A135.793602 135.793602 0 0 0 6.868937 244.904025v534.19195a135.793602 135.793602 0 0 0 135.529412 135.793602h739.731682a136.057792 136.057792 0 0 0 135.793602-135.793602V244.904025a136.057792 136.057792 0 0 0-136.321982-135.793602z m82.955625 669.985552a83.219814 83.219814 0 0 1-82.955625 82.955625h-739.731682a82.955624 82.955624 0 0 1-82.691434-82.955625V244.904025a82.955624 82.955624 0 0 1 83.219814-82.955625h739.731682a83.219814 83.219814 0 0 1 82.955624 82.955625z" p-id="2532"></path><path d="M467.351909 462.332301a26.418989 26.418989 0 0 0 0-52.837977h-105.675954l97.486068-97.486068a26.418989 26.418989 0 0 0 0-37.250774 26.418989 26.418989 0 0 0-37.514964 0l-110.959752 110.959752-110.959753-110.959752a26.418989 26.418989 0 0 0-37.514964 0 26.418989 26.418989 0 0 0 0 37.250774l96.957689 97.486068h-105.675955a26.418989 26.418989 0 0 0 0 52.837977h132.094943v73.973169h-132.094943a26.418989 26.418989 0 0 0 0 52.837977h132.094943v132.094943a26.418989 26.418989 0 1 0 52.837978 0v-132.094943h132.094943a26.418989 26.418989 0 0 0 0-52.837977h-132.094943v-73.973169zM851.219814 290.608875h-280.041279a26.418989 26.418989 0 1 0 0 52.837977h280.041279a26.418989 26.418989 0 0 0 0-52.837977zM851.219814 679.496388h-280.041279a26.418989 26.418989 0 0 0 0 52.837977h280.041279a26.418989 26.418989 0 0 0 0-52.837977zM851.219814 484.524252h-196.557275a26.418989 26.418989 0 0 0 0 52.837977h196.557275a26.418989 26.418989 0 0 0 0-52.837977z" p-id="2533"></path></svg>